<svg width="24" height="24" viewBox="0 0 24 24" fill="none" xmlns="http://www.w3.org/2000/svg">
<g id="car-engine (1) 1" clip-path="url(#clip0_287_24)">
<path id="Vector" d="M22 11.2001H21.2C20.8817 11.2001 20.5765 11.3265 20.3515 11.5516C20.1264 11.7766 20 12.0818 20 12.4001V12.8001H19.2V10.8001C19.2 10.4818 19.0736 10.1766 18.8485 9.95157C18.6235 9.72653 18.3183 9.6001 18 9.6001H16.8C16.6939 9.6001 16.5922 9.55796 16.5172 9.48294C16.4421 9.40793 16.4 9.30618 16.4 9.2001V8.4001C16.4 8.08184 16.2736 7.77661 16.0485 7.55157C15.8235 7.32653 15.5183 7.2001 15.2 7.2001H13.6V6.0001H15.6C15.9183 6.0001 16.2235 5.87367 16.4485 5.64863C16.6736 5.42358 16.8 5.11836 16.8 4.8001C16.8 4.48184 16.6736 4.17661 16.4485 3.95157C16.2235 3.72653 15.9183 3.6001 15.6 3.6001H7.6C7.28174 3.6001 6.97652 3.72653 6.75147 3.95157C6.52643 4.17661 6.4 4.48184 6.4 4.8001C6.4 5.11836 6.52643 5.42358 6.75147 5.64863C6.97652 5.87367 7.28174 6.0001 7.6 6.0001H9.6V7.2001H7.6C7.28174 7.2001 6.97652 7.32653 6.75147 7.55157C6.52643 7.77661 6.4 8.08184 6.4 8.4001C6.4 8.50618 6.35786 8.60793 6.28284 8.68294C6.20783 8.75796 6.10609 8.8001 6 8.8001H4.8C4.48174 8.8001 4.17652 8.92653 3.95147 9.15157C3.72643 9.37661 3.6 9.68184 3.6 10.0001V11.6001H2.4V10.0001C2.4 9.68184 2.27357 9.37661 2.04853 9.15157C1.82348 8.92653 1.51826 8.8001 1.2 8.8001C0.88174 8.8001 0.576515 8.92653 0.351472 9.15157C0.126428 9.37661 0 9.68184 0 10.0001L0 16.4001C0 16.7184 0.126428 17.0236 0.351472 17.2486C0.576515 17.4737 0.88174 17.6001 1.2 17.6001C1.51826 17.6001 1.82348 17.4737 2.04853 17.2486C2.27357 17.0236 2.4 16.7184 2.4 16.4001V14.8001H3.6V16.8001C3.6 17.1184 3.72643 17.4236 3.95147 17.6486C4.17652 17.8737 4.48174 18.0001 4.8 18.0001H6.4688C6.57488 18.0001 6.6766 18.0423 6.7516 18.1173L8.6828 20.0485C8.79391 20.1603 8.92612 20.249 9.07175 20.3093C9.21739 20.3697 9.37356 20.4005 9.5312 20.4001H18C18.3183 20.4001 18.6235 20.2737 18.8485 20.0486C19.0736 19.8236 19.2 19.5184 19.2 19.2001V17.6001H20V18.0001C20 18.3184 20.1264 18.6236 20.3515 18.8486C20.5765 19.0737 20.8817 19.2001 21.2 19.2001H22C22.5302 19.1995 23.0386 18.9885 23.4135 18.6136C23.7884 18.2387 23.9994 17.7303 24 17.2001V13.2001C23.9994 12.6699 23.7884 12.1615 23.4135 11.7866C23.0386 11.4117 22.5302 11.2007 22 11.2001ZM7.2 4.8001C7.2 4.69401 7.24214 4.59227 7.31716 4.51726C7.39217 4.44224 7.49391 4.4001 7.6 4.4001H15.6C15.7061 4.4001 15.8078 4.44224 15.8828 4.51726C15.9579 4.59227 16 4.69401 16 4.8001C16 4.90618 15.9579 5.00793 15.8828 5.08294C15.8078 5.15795 15.7061 5.2001 15.6 5.2001H7.6C7.49391 5.2001 7.39217 5.15795 7.31716 5.08294C7.24214 5.00793 7.2 4.90618 7.2 4.8001ZM10.4 6.0001H12.8V7.2001H10.4V6.0001ZM1.6 16.4001C1.6 16.5062 1.55786 16.6079 1.48284 16.6829C1.40783 16.758 1.30609 16.8001 1.2 16.8001C1.09391 16.8001 0.992172 16.758 0.917157 16.6829C0.842143 16.6079 0.8 16.5062 0.8 16.4001V10.0001C0.8 9.89401 0.842143 9.79227 0.917157 9.71725C0.992172 9.64224 1.09391 9.6001 1.2 9.6001C1.30609 9.6001 1.40783 9.64224 1.48284 9.71725C1.55786 9.79227 1.6 9.89401 1.6 10.0001V16.4001ZM2.4 14.0001V12.4001H3.6V14.0001H2.4ZM18.4 19.2001C18.4 19.3062 18.3579 19.4079 18.2828 19.4829C18.2078 19.558 18.1061 19.6001 18 19.6001H9.5312C9.42512 19.6001 9.3234 19.5579 9.2484 19.4829L7.3172 17.5517C7.20603 17.4399 7.07382 17.3513 6.92819 17.291C6.78257 17.2306 6.62643 17.1997 6.4688 17.2001H4.8C4.69391 17.2001 4.59217 17.158 4.51716 17.0829C4.44214 17.0079 4.4 16.9062 4.4 16.8001V10.0001C4.4 9.89401 4.44214 9.79227 4.51716 9.71725C4.59217 9.64224 4.69391 9.6001 4.8 9.6001H6C6.31826 9.6001 6.62348 9.47367 6.84853 9.24863C7.07357 9.02358 7.2 8.71836 7.2 8.4001C7.2 8.29401 7.24214 8.19227 7.31716 8.11725C7.39217 8.04224 7.49391 8.0001 7.6 8.0001H15.2C15.3061 8.0001 15.4078 8.04224 15.4828 8.11725C15.5579 8.19227 15.6 8.29401 15.6 8.4001V9.2001C15.6 9.51836 15.7264 9.82358 15.9515 10.0486C16.1765 10.2737 16.4817 10.4001 16.8 10.4001H18C18.1061 10.4001 18.2078 10.4422 18.2828 10.5173C18.3579 10.5923 18.4 10.694 18.4 10.8001V19.2001ZM19.2 16.8001V13.6001H20V16.8001H19.2ZM23.2 17.2001C23.2 17.5184 23.0736 17.8236 22.8485 18.0486C22.6235 18.2737 22.3183 18.4001 22 18.4001H21.2C21.0939 18.4001 20.9922 18.358 20.9172 18.2829C20.8421 18.2079 20.8 18.1062 20.8 18.0001V12.4001C20.8 12.294 20.8421 12.1923 20.9172 12.1173C20.9922 12.0422 21.0939 12.0001 21.2 12.0001H22C22.3183 12.0001 22.6235 12.1265 22.8485 12.3516C23.0736 12.5766 23.2 12.8818 23.2 13.2001V17.2001Z" fill="#3AC22C"/>
</g>
<defs>
<clipPath id="clip0_287_24">
<rect width="24" height="24" fill="white"/>
</clipPath>
</defs>
</svg>
