<svg width="24" height="24" viewBox="0 0 24 24" fill="none" xmlns="http://www.w3.org/2000/svg">
<g id="transmission 1">
<g id="Layer 15">
<path id="Vector" d="M22.875 11.9998C22.8735 11.4426 22.6745 10.904 22.3134 10.4797C21.9522 10.0553 21.4523 9.77282 20.9025 9.68232V6.59233C21.486 6.49806 22.0125 6.18752 22.3774 5.72253C22.7422 5.25754 22.9185 4.6722 22.8712 4.08307C22.8239 3.49394 22.5565 2.94422 22.1222 2.54336C21.6879 2.14251 21.1185 1.91992 20.5275 1.91992C19.9365 1.91992 19.3671 2.14251 18.9328 2.54336C18.4985 2.94422 18.2311 3.49394 18.1838 4.08307C18.1365 4.6722 18.3128 5.25754 18.6777 5.72253C19.0425 6.18752 19.569 6.49806 20.1525 6.59233V9.68232C19.666 9.76161 19.2166 9.99181 18.8681 10.3404C18.5195 10.689 18.2893 11.1383 18.21 11.6248H15.12C15.0397 11.1387 14.8091 10.69 14.4607 10.3416C14.1123 9.99322 13.6636 9.76267 13.1775 9.68232V6.59233C13.761 6.49806 14.2875 6.18752 14.6524 5.72253C15.0172 5.25754 15.1935 4.6722 15.1462 4.08307C15.0989 3.49394 14.8315 2.94422 14.3972 2.54336C13.9629 2.14251 13.3935 1.91992 12.8025 1.91992C12.2115 1.91992 11.6421 2.14251 11.2078 2.54336C10.7735 2.94422 10.5061 3.49394 10.4588 4.08307C10.4115 4.6722 10.5878 5.25754 10.9527 5.72253C11.3175 6.18752 11.844 6.49806 12.4275 6.59233V9.68232C11.9441 9.76552 11.4987 9.99733 11.1533 10.3455C10.8078 10.6936 10.5795 11.1408 10.5 11.6248H3.85125V6.59233C4.43472 6.49806 4.96128 6.18752 5.3261 5.72253C5.69093 5.25754 5.86725 4.6722 5.81997 4.08307C5.77269 3.49394 5.50526 2.94422 5.07095 2.54336C4.63663 2.14251 4.06728 1.91992 3.47625 1.91992C2.88523 1.91992 2.31588 2.14251 1.88156 2.54336C1.44724 2.94422 1.17982 3.49394 1.13254 4.08307C1.08526 4.6722 1.26158 5.25754 1.62641 5.72253C1.99123 6.18752 2.51779 6.49806 3.10125 6.59233V11.9998C3.10125 12.0993 3.14076 12.1947 3.21109 12.265C3.28142 12.3353 3.3768 12.3748 3.47625 12.3748H10.5C10.5804 12.8609 10.8109 13.3097 11.1593 13.658C11.5077 14.0064 11.9564 14.237 12.4425 14.3173V17.4073C11.86 17.5016 11.3344 17.8117 10.9703 18.276C10.6062 18.7403 10.4303 19.3246 10.4776 19.9128C10.5248 20.5009 10.7919 21.0497 11.2255 21.4498C11.6591 21.85 12.2275 22.0722 12.8175 22.0722C13.4075 22.0722 13.9759 21.85 14.4095 21.4498C14.8432 21.0497 15.1102 20.5009 15.1575 19.9128C15.2047 19.3246 15.0288 18.7403 14.6647 18.276C14.3006 17.8117 13.775 17.5016 13.1925 17.4073V14.3173C13.6759 14.2341 14.1213 14.0023 14.4667 13.6542C14.8122 13.306 15.0406 12.8588 15.12 12.3748H18.21C18.2893 12.8614 18.5195 13.3107 18.8681 13.6593C19.2166 14.0078 19.666 14.238 20.1525 14.3173V17.4073C19.57 17.5016 19.0444 17.8117 18.6803 18.276C18.3162 18.7403 18.1403 19.3246 18.1876 19.9128C18.2348 20.5009 18.5019 21.0497 18.9355 21.4498C19.3691 21.85 19.9375 22.0722 20.5275 22.0722C21.1175 22.0722 21.6859 21.85 22.1195 21.4498C22.5532 21.0497 22.8202 20.5009 22.8675 19.9128C22.9147 19.3246 22.7388 18.7403 22.3747 18.276C22.0106 17.8117 21.485 17.5016 20.9025 17.4073V14.3173C21.4523 14.2268 21.9522 13.9443 22.3134 13.52C22.6745 13.0957 22.8735 12.557 22.875 11.9998ZM1.875 4.27482C1.87501 3.95797 1.96901 3.64823 2.14513 3.38483C2.32124 3.12142 2.57154 2.91619 2.86435 2.79511C3.15716 2.67402 3.47931 2.64253 3.79002 2.70462C4.10074 2.76671 4.38605 2.91959 4.60984 3.1439C4.83362 3.36822 4.98583 3.65388 5.04719 3.96474C5.10855 4.2756 5.07631 4.59768 4.95454 4.8902C4.83277 5.18272 4.62695 5.43254 4.36313 5.60804C4.09931 5.78354 3.78936 5.87682 3.4725 5.87608C3.2624 5.87608 3.05436 5.83463 2.8603 5.75411C2.66624 5.6736 2.48996 5.55559 2.34157 5.40685C2.19318 5.25811 2.07559 5.08156 1.99553 4.88731C1.91547 4.69306 1.87451 4.48493 1.875 4.27482ZM11.2013 4.27482C11.2013 3.95813 11.2952 3.64854 11.4711 3.38522C11.6471 3.12189 11.8971 2.91666 12.1897 2.79546C12.4823 2.67427 12.8043 2.64256 13.1149 2.70434C13.4255 2.76613 13.7108 2.91863 13.9348 3.14257C14.1587 3.36651 14.3112 3.65182 14.373 3.96244C14.4348 4.27305 14.4031 4.59501 14.2819 4.8876C14.1607 5.18019 13.9554 5.43027 13.6921 5.60622C13.4288 5.78216 13.1192 5.87608 12.8025 5.87608C12.3778 5.87608 11.9705 5.70737 11.6702 5.40708C11.37 5.10679 11.2013 4.6995 11.2013 4.27482ZM14.4 19.7248C14.4 20.0417 14.306 20.3514 14.1299 20.6148C13.9538 20.8782 13.7035 21.0835 13.4107 21.2045C13.1178 21.3256 12.7957 21.3571 12.485 21.295C12.1743 21.2329 11.889 21.0801 11.6652 20.8557C11.4414 20.6314 11.2892 20.3458 11.2278 20.0349C11.1665 19.724 11.1987 19.402 11.3205 19.1094C11.4422 18.8169 11.6481 18.5671 11.9119 18.3916C12.1757 18.2161 12.4856 18.1228 12.8025 18.1236C13.0126 18.1236 13.2206 18.165 13.4147 18.2455C13.6088 18.3261 13.785 18.4441 13.9334 18.5928C14.0818 18.7415 14.1994 18.9181 14.2795 19.1123C14.3595 19.3066 14.4005 19.5147 14.4 19.7248ZM12.8025 13.6011C12.4856 13.6018 12.1757 13.5085 11.9119 13.333C11.6481 13.1575 11.4422 12.9077 11.3205 12.6152C11.1987 12.3227 11.1665 12.0006 11.2278 11.6897C11.2892 11.3789 11.4414 11.0932 11.6652 10.8689C11.889 10.6446 12.1743 10.4917 12.485 10.4296C12.7957 10.3675 13.1178 10.399 13.4107 10.5201C13.7035 10.6412 13.9538 10.8464 14.1299 11.1098C14.306 11.3732 14.4 11.683 14.4 11.9998C14.399 12.4236 14.2305 12.8297 13.9312 13.1297C13.632 13.4296 13.2262 13.5991 12.8025 13.6011ZM18.9263 4.27482C18.9263 3.95813 19.0202 3.64854 19.1961 3.38522C19.3721 3.12189 19.6221 2.91666 19.9147 2.79546C20.2073 2.67427 20.5293 2.64256 20.8399 2.70434C21.1505 2.76613 21.4358 2.91863 21.6598 3.14257C21.8837 3.36651 22.0362 3.65182 22.098 3.96244C22.1598 4.27305 22.1281 4.59501 22.0069 4.8876C21.8857 5.18019 21.6804 5.43027 21.4171 5.60622C21.1538 5.78216 20.8442 5.87608 20.5275 5.87608C20.1028 5.87608 19.6955 5.70737 19.3952 5.40708C19.095 5.10679 18.9263 4.6995 18.9263 4.27482ZM18.9263 11.9998C18.9263 11.6831 19.0202 11.3735 19.1961 11.1102C19.3721 10.8469 19.6221 10.6417 19.9147 10.5205C20.2073 10.3993 20.5293 10.3676 20.8399 10.4293C21.1505 10.4911 21.4358 10.6436 21.6598 10.8676C21.8837 11.0915 22.0362 11.3768 22.098 11.6874C22.1598 11.998 22.1281 12.32 22.0069 12.6126C21.8857 12.9052 21.6804 13.1553 21.4171 13.3312C21.1538 13.5072 20.8442 13.6011 20.5275 13.6011C20.1028 13.6011 19.6955 13.4324 19.3952 13.1321C19.095 12.8318 18.9263 12.4245 18.9263 11.9998ZM22.125 19.7248C22.125 20.0417 22.031 20.3514 21.8549 20.6148C21.6788 20.8782 21.4285 21.0835 21.1357 21.2045C20.8428 21.3256 20.5207 21.3571 20.21 21.295C19.8993 21.2329 19.614 21.0801 19.3902 20.8557C19.1664 20.6314 19.0142 20.3458 18.9528 20.0349C18.8915 19.724 18.9237 19.402 19.0455 19.1094C19.1672 18.8169 19.3731 18.5671 19.6369 18.3916C19.9007 18.2161 20.2106 18.1228 20.5275 18.1236C20.7376 18.1236 20.9456 18.165 21.1397 18.2455C21.3338 18.3261 21.51 18.4441 21.6584 18.5928C21.8068 18.7415 21.9244 18.9181 22.0045 19.1123C22.0845 19.3066 22.1255 19.5147 22.125 19.7248Z" fill="#3AC22C"/>
</g>
</g>
</svg>
