<svg width="24" height="24" viewBox="0 0 24 24" fill="none" xmlns="http://www.w3.org/2000/svg">
<g id="speedometer (2) 1" clip-path="url(#clip0_287_26)">
<path id="Vector" d="M18.4434 6.86816L19.1506 7.57513L15.4161 11.3096L14.709 10.6024L18.4434 6.86816Z" fill="#3AC22C"/>
<path id="Vector_2" d="M14.0001 14.0156C12.9 14.0156 12 13.1156 12 12.0155C12 10.9156 12.9 10.0156 14.0001 10.0156C15.1 10.0156 15.9999 10.9156 15.9999 12.0155C15.9999 13.1156 15.1 14.0156 14.0001 14.0156ZM14.0001 11.0156C13.45 11.0156 12.9999 11.4656 12.9999 12.0155C12.9999 12.5656 13.45 13.0156 14.0001 13.0156C14.5499 13.0156 15 12.5656 15 12.0155C15 11.4656 14.5499 11.0156 14.0001 11.0156Z" fill="#3AC22C"/>
<path id="Vector_3" d="M14.0002 22.0157C10.4064 22.0157 7.06897 20.0718 5.29395 16.9406L6.1626 16.4469C7.76276 19.2656 10.769 21.0156 14.0002 21.0156C18.9628 21.0156 23.0002 16.9781 23.0002 12.0156C23.0002 7.05304 18.9628 3.01556 14.0002 3.01556C10.769 3.01556 7.76898 4.75946 6.16901 7.57196L5.30017 7.07812C7.0752 3.95306 10.4064 2.01562 14.0002 2.01562C19.5126 2.01562 24.0002 6.50317 24.0002 12.0156C24.0002 17.5281 19.5126 22.0157 14.0002 22.0157Z" fill="#3AC22C"/>
<path id="Vector_4" d="M2 14.5156H8.49988V15.5156H2V14.5156Z" fill="#3AC22C"/>
<path id="Vector_5" d="M0 11.5156H6.50006V12.5156H0V11.5156Z" fill="#3AC22C"/>
<path id="Vector_6" d="M2 8.51562H8.49988V9.51556H2V8.51562Z" fill="#3AC22C"/>
</g>
<defs>
<clipPath id="clip0_287_26">
<rect width="24" height="24" fill="white"/>
</clipPath>
</defs>
</svg>
