<svg width="228" height="58" viewBox="0 0 228 58" fill="none" xmlns="http://www.w3.org/2000/svg">
<g id="forsage_auto" clip-path="url(#clip0_287_464)">
<path id="Vector" d="M5.12221 56.7001L7.01376 51.2239H19.2071L20.4585 47.679H8.26512L8.81802 46.0938H21.0405L22.3791 42.2031H8.29423C8.0226 42.2031 7.72189 42.2702 7.3921 42.4049C7.06227 42.5393 6.74216 42.7218 6.43174 42.9524C6.14074 43.1638 5.87883 43.4136 5.64603 43.7017C5.4132 43.9708 5.24829 44.2492 5.15129 44.5376L0.931641 56.7001H5.12221ZM40.0416 42.2031H26.5677C26.2961 42.2031 25.9953 42.2702 25.6655 42.4049C25.3357 42.5393 25.0156 42.7218 24.7052 42.9524C24.4142 43.1638 24.1523 43.4136 23.9195 43.7017C23.6867 43.9708 23.5217 44.2492 23.4247 44.5376L20.0199 54.3654C19.9229 54.6537 19.8938 54.9421 19.9326 55.2301C19.9714 55.4992 20.0587 55.7491 20.1945 55.9794C20.3497 56.1908 20.5437 56.3637 20.7765 56.4984C21.0093 56.6328 21.2616 56.7001 21.5332 56.7001H35.0071C35.2785 56.7001 35.5793 56.6328 35.909 56.4984C36.239 56.3637 36.5493 56.1908 36.8405 55.9794C37.1507 55.7491 37.4225 55.4992 37.6553 55.2301C37.8879 54.9421 38.053 54.6537 38.1499 54.3654L41.5547 44.5376C41.6518 44.2492 41.6807 43.9708 41.6421 43.7017C41.6033 43.4136 41.5061 43.1638 41.351 42.9524C41.2153 42.7218 41.031 42.5393 40.7981 42.4049C40.5653 42.2702 40.313 42.2031 40.0416 42.2031ZM36.8405 46.0938L34.4831 52.8091H24.7343L27.0915 46.0938H36.8405ZM42.3264 47.679L39.1836 56.7001H43.3741L45.2658 51.2239H49.9221L52.3083 56.7001H56.6734L54.5492 51.2239H55.7423C56.0137 51.2239 56.3146 51.1569 56.6443 51.0222C56.974 50.8878 57.2846 50.7149 57.5754 50.5035C57.886 50.2729 58.1577 50.023 58.3903 49.7542C58.6231 49.4659 58.788 49.1779 58.8851 48.8895L60.3982 44.5376C60.4954 44.2492 60.5245 43.9708 60.4857 43.7017C60.4468 43.4136 60.35 43.1638 60.1945 42.9524C60.0588 42.7218 59.8745 42.5393 59.6417 42.4049C59.4088 42.2702 59.1568 42.2031 58.8851 42.2031H44.2181L42.8796 46.0938H55.684L55.1312 47.679H42.3264ZM73.5072 51.2239L72.9543 52.8091H59.3642L58.0253 56.7001H73.478C73.7498 56.7001 74.0506 56.6328 74.3803 56.4984C74.71 56.3637 75.0206 56.1908 75.3114 55.9794C75.622 55.7491 75.8934 55.4992 76.1263 55.2301C76.3592 54.9421 76.524 54.6537 76.6212 54.3654L78.1343 50.0134C78.2314 49.7254 78.2606 49.4467 78.2217 49.1779C78.1829 48.8895 78.0857 48.6396 77.9306 48.4283C77.7949 48.198 77.6106 48.0151 77.3777 47.8807C77.1449 47.7463 76.8926 47.679 76.6212 47.679H65.359L65.9118 46.0938H79.502L80.8408 42.2031H65.3881C65.1164 42.2031 64.8159 42.2702 64.4859 42.4049C64.1562 42.5393 63.8362 42.7218 63.5256 42.9524C63.2347 43.1638 62.9727 43.4136 62.7399 43.7017C62.507 43.9708 62.3422 44.2492 62.245 44.5376L60.7319 48.8895C60.6347 49.1779 60.6059 49.4659 60.6445 49.7542C60.6833 50.023 60.7708 50.2729 60.9065 50.5035C61.0616 50.7149 61.2556 50.8878 61.4885 51.0222C61.7213 51.1569 61.9736 51.2239 62.245 51.2239H73.5072ZM83.8394 54.2791H91.6676L92.0459 56.7001H96.3819L94.6939 44.2781C94.597 43.5865 94.403 43.0676 94.1119 42.7218C93.8405 42.376 93.3748 42.2031 92.715 42.2031H90.8816C89.5625 42.2031 88.3208 42.8947 87.1568 44.2781L76.8549 56.7001H81.8023L83.8394 54.2791ZM91.2311 50.8204H86.7494L90.5908 46.4685L91.2311 50.8204ZM113.216 51.2239L112.662 52.8091H102.972L105.329 46.0938H119.21L120.549 42.2031H104.805C104.534 42.2031 104.233 42.2702 103.903 42.4049C103.573 42.5393 103.253 42.7218 102.943 42.9524C102.652 43.1638 102.39 43.4136 102.157 43.7017C101.924 43.9708 101.759 44.2492 101.662 44.5376L98.2575 54.3654C98.1606 54.6537 98.1315 54.9421 98.1703 55.2301C98.2089 55.4992 98.2963 55.7491 98.432 55.9794C98.5875 56.1908 98.7815 56.3637 99.014 56.4984C99.2469 56.6328 99.4992 56.7001 99.7709 56.7001H113.186C113.458 56.7001 113.759 56.6328 114.088 56.4984C114.418 56.3637 114.729 56.1908 115.02 55.9794C115.33 55.7491 115.602 55.4992 115.835 55.2301C116.067 54.9421 116.232 54.6537 116.329 54.3654L117.843 50.0134C117.94 49.7254 117.969 49.4467 117.93 49.1779C117.891 48.8895 117.794 48.6396 117.639 48.4283C117.503 48.198 117.319 48.0151 117.086 47.8807C116.853 47.7463 116.601 47.679 116.329 47.679H107.483L106.231 51.2239H113.216ZM119.693 56.7001H133.778L135.116 52.8091H122.894L123.446 51.2239H135.64L136.891 47.679H124.698L125.251 46.0938H137.473L138.812 42.2031H124.727C124.455 42.2031 124.155 42.2702 123.825 42.4049C123.495 42.5393 123.175 42.7218 122.864 42.9524C122.574 43.1638 122.312 43.4136 122.079 43.7017C121.846 43.9708 121.681 44.2492 121.584 44.5376L118.179 54.3654C118.082 54.6537 118.053 54.9421 118.092 55.2301C118.131 55.4992 118.218 55.7491 118.354 55.9794C118.509 56.1908 118.703 56.3637 118.936 56.4984C119.169 56.6328 119.421 56.7001 119.693 56.7001ZM152.613 54.2791H160.442L160.82 56.7001H165.156L163.468 44.2781C163.371 43.5865 163.177 43.0676 162.886 42.7218C162.614 42.376 162.149 42.2031 161.489 42.2031H159.656C158.337 42.2031 157.095 42.8947 155.931 44.2781L145.629 56.7001H150.576L152.613 54.2791ZM160.005 50.8204H155.523L159.365 46.4685L160.005 50.8204ZM171.746 52.8091L175.442 42.2031H171.251L167.032 54.3654C166.935 54.6537 166.906 54.9421 166.944 55.2301C166.983 55.4992 167.07 55.7491 167.206 55.9794C167.362 56.1908 167.556 56.3637 167.788 56.4984C168.021 56.6328 168.273 56.7001 168.545 56.7001H181.96C182.232 56.7001 182.533 56.6328 182.862 56.4984C183.192 56.3637 183.503 56.1908 183.794 55.9794C184.104 55.7491 184.376 55.4992 184.609 55.2301C184.841 54.9421 185.006 54.6537 185.103 54.3654L189.323 42.2031H185.132L181.436 52.8091H171.746ZM189.834 46.0938H196.44L192.745 56.7001H196.935L200.631 46.0938H207.237L208.575 42.2031H191.173L189.834 46.0938ZM226.243 42.2031H212.769C212.498 42.2031 212.197 42.2702 211.867 42.4049C211.537 42.5393 211.217 42.7218 210.907 42.9524C210.616 43.1638 210.354 43.4136 210.121 43.7017C209.888 43.9708 209.723 44.2492 209.626 44.5376L206.221 54.3654C206.125 54.6537 206.095 54.9421 206.134 55.2301C206.173 55.4992 206.26 55.7491 206.396 55.9794C206.551 56.1908 206.745 56.3637 206.978 56.4984C207.211 56.6328 207.463 56.7001 207.735 56.7001H221.208C221.48 56.7001 221.781 56.6328 222.111 56.4984C222.44 56.3637 222.751 56.1908 223.042 55.9794C223.352 55.7491 223.624 55.4992 223.857 55.2301C224.089 54.9421 224.254 54.6537 224.352 54.3654L227.756 44.5376C227.853 44.2492 227.882 43.9708 227.843 43.7017C227.805 43.4136 227.708 43.1638 227.553 42.9524C227.417 42.7218 227.232 42.5393 227 42.4049C226.767 42.2702 226.515 42.2031 226.243 42.2031ZM223.042 46.0938L220.685 52.8091H210.936L213.293 46.0938H223.042Z" fill="white"/>
<g id="Vector_2">
<mask id="path-2-outside-1_287_464" maskUnits="userSpaceOnUse" x="-1" y="0.289062" width="226" height="34" fill="black">
<rect fill="white" x="-1" y="0.289062" width="226" height="34"/>
<path d="M104.623 29.2294C98.3746 29.1791 92.126 29.1816 85.8771 29.1568C79.6288 29.1829 73.3802 29.1785 67.1316 29.23L57.7584 29.3179C54.6341 29.3701 51.5104 29.4013 48.3858 29.472C51.5104 29.5433 54.6341 29.5739 57.7584 29.6261L67.1316 29.7139C73.3802 29.7661 79.6288 29.7611 85.8771 29.7878C92.126 29.763 98.3746 29.7655 104.623 29.7152L113.996 29.6274C117.12 29.5745 120.245 29.5439 123.369 29.472C120.245 29.4007 117.12 29.3695 113.996 29.3173L104.623 29.2294ZM93.5255 16.863C91.8603 17.2406 90.1565 17.4914 88.4406 17.6385C89.3025 17.6589 90.165 17.6194 91.0269 17.5557C91.8892 17.494 92.7495 17.3921 93.6036 17.2399C94.4588 17.091 95.3073 16.8872 96.1374 16.6039C96.965 16.318 97.7829 15.9468 98.4948 15.3724L98.8063 15.1222L98.459 14.9102C97.3903 14.2582 96.27 13.7348 95.0891 13.3165C94.4952 13.1197 93.8862 12.9522 93.2566 12.8586C92.6281 12.765 91.9699 12.7352 91.3202 12.8943C90.6975 13.0458 90.1189 13.2554 89.5436 13.4795C88.9692 13.7042 88.4021 13.9398 87.8435 14.1932C87.2821 14.4409 86.7277 14.7039 86.1795 14.9764C85.6296 15.247 85.0814 15.5201 84.544 15.8156L86.2663 15.1751L87.9889 14.5466C89.1346 14.1423 90.2941 13.7106 91.4441 13.4515C91.993 13.3356 92.5817 13.375 93.1606 13.4642C93.7411 13.5559 94.3161 13.7195 94.8811 13.9137C95.8766 14.2486 96.8463 14.6988 97.7747 15.1948C97.2303 15.5819 96.6058 15.8825 95.9637 16.1365C95.1777 16.4402 94.355 16.6656 93.5255 16.863ZM191.244 28.5392C189.84 28.3991 188.425 28.3622 187.014 28.4036C184.193 28.5176 181.383 29.0002 178.707 29.8865C176.03 30.762 173.491 32.0451 171.236 33.6882C173.629 32.2486 176.198 31.1383 178.856 30.3551C181.517 29.5796 184.27 29.1345 187.037 29.0345C189.805 28.9327 192.585 29.1664 195.297 29.7426C198.008 30.3239 200.656 31.2305 203.163 32.4651C200.777 31.0154 198.146 29.9336 195.41 29.2618C194.043 28.918 192.648 28.6863 191.244 28.5392ZM27.5034 29.1715C25.5493 29.2523 23.6029 29.5911 21.7556 30.2195C19.9069 30.8377 18.1612 31.7489 16.6276 32.914C18.2981 31.9528 20.0747 31.214 21.9047 30.6881C23.7373 30.1705 25.6271 29.8693 27.5266 29.8024C29.4267 29.7311 31.3344 29.8872 33.2018 30.2673C35.0671 30.6544 36.8953 31.2522 38.6422 32.0703C37.0161 31.0371 35.2055 30.264 33.3144 29.7872C31.4245 29.2981 29.4575 29.1084 27.5034 29.1715ZM179.549 12.2308C177.767 11.7291 175.984 11.2325 174.193 10.7626C172.404 10.2863 170.607 9.83868 168.8 9.42038C170.556 10.0144 172.319 10.5798 174.091 11.1153C175.86 11.6578 177.638 12.1742 179.417 12.6848C181.199 13.1872 182.982 13.6832 184.774 14.1537C186.562 14.63 188.36 15.077 190.165 15.4953C188.411 14.9006 186.647 14.3352 184.876 13.7991C183.106 13.2572 181.328 12.7408 179.549 12.2308ZM136.927 18.3733C136.461 18.3886 135.994 18.4032 135.528 18.4223C133.637 18.4771 131.745 18.528 129.853 18.5649L118.497 18.7859L74.3857 19.513C77.7456 17.5309 81.1504 15.6144 84.5913 13.7717C86.5031 12.7454 88.4309 11.7476 90.3785 10.7906C92.3266 9.83486 94.2924 8.91416 96.2955 8.08644C98.2981 7.26761 100.336 6.48574 102.445 6.0623C104.574 5.68983 106.741 5.44021 108.907 5.24922C113.241 4.87672 117.598 4.73474 121.954 4.74682C117.599 4.61056 113.236 4.68125 108.884 4.97032C106.708 5.12504 104.536 5.31862 102.372 5.67452C100.201 6.08458 98.1432 6.84992 96.1152 7.65094C94.0878 8.46084 92.1029 9.36307 90.1359 10.299C88.1701 11.2369 86.2238 12.2149 84.2947 13.2222C80.4382 15.2432 76.6447 17.3705 72.8941 19.5843L71.7909 20.2357L73.0778 20.2191C80.6513 20.123 88.2235 20.0428 95.7955 19.9046L118.511 19.443C122.297 19.3609 126.083 19.2533 129.868 19.1253C131.76 19.0667 133.653 18.9935 135.546 18.9171C136.492 18.8827 137.44 18.8254 138.387 18.7802C138.859 18.7623 139.336 18.7184 139.812 18.6802L140.526 18.6216C140.765 18.5892 141.001 18.5535 141.236 18.5127C143.114 18.1791 144.953 17.7251 146.787 17.2469C148.619 16.7669 150.442 16.2575 152.26 15.7316C154.079 15.2056 155.891 14.6625 157.698 14.1009C158.602 13.8208 159.502 13.531 160.401 13.233L161.744 12.7759L162.411 12.5339C162.627 12.4442 162.862 12.378 163.053 12.2417C162.859 12.3728 162.623 12.4327 162.404 12.5167L161.732 12.7415L160.378 13.1643L157.658 13.9691C155.842 14.4963 154.019 15.0038 152.193 15.4953C150.366 15.9856 148.536 16.4599 146.699 16.905C144.861 17.3405 143.02 17.7869 141.166 18.0893C139.98 18.2485 138.775 18.3071 137.565 18.3498L139.321 6.95305L136.927 18.3733ZM153.732 18.67C158.795 17.0311 163.778 15.1916 168.731 13.2636L169.229 13.0701L168.846 12.7084C167.709 11.6355 166.526 10.6346 165.279 9.69543C164.652 9.23062 164.008 8.7862 163.337 8.3774C162.666 7.97116 161.963 7.59487 161.191 7.34783L160.904 7.25294L160.615 7.18228L160.038 7.04349C159.652 6.97536 159.267 6.89321 158.881 6.83654C158.108 6.71618 157.335 6.6245 156.562 6.53854C155.015 6.3781 153.466 6.2686 151.917 6.17436C148.818 5.99161 145.72 5.86873 142.621 5.75092C139.523 5.63123 136.425 5.53573 133.325 5.43639L142.611 5.98016C145.705 6.16161 148.799 6.34821 151.886 6.59395C153.429 6.72258 154.97 6.8614 156.505 7.03585C157.271 7.13075 158.036 7.23069 158.793 7.35869C159.173 7.41982 159.544 7.50385 159.921 7.57514L160.472 7.7152L160.746 7.78589L161.01 7.87696C161.711 8.10998 162.381 8.47611 163.025 8.87787C163.668 9.28156 164.292 9.7228 164.9 10.1857C165.966 11.0096 166.99 11.9011 167.968 12.8243C165.659 13.6902 163.336 14.5294 161.007 15.3444C158.503 16.2129 156 17.0852 153.475 17.8856C150.952 18.6866 148.415 19.4538 145.853 20.0791C145.212 20.2261 144.572 20.3949 143.928 20.5038L142.964 20.6871C142.642 20.7349 142.322 20.7654 142.001 20.8062L141.521 20.8641L141.027 20.8845L140.04 20.9259C139.385 20.959 138.717 20.9622 138.055 20.9813C132.75 21.1042 127.435 21.1507 122.123 21.2328L106.185 21.4735L90.2458 21.7161L74.3077 22.0523C68.995 22.1758 63.6815 22.2987 58.3704 22.4814C53.0599 22.6775 47.7467 22.8399 42.4438 23.1933C53.0657 22.8456 63.6922 22.7991 74.3177 22.6629L90.2567 22.5203L106.196 22.3445C116.824 22.2267 127.447 22.1529 138.08 21.8727C138.747 21.8504 139.407 21.8447 140.078 21.8084L141.082 21.7619L141.583 21.739L142.092 21.6766C142.43 21.6327 142.772 21.5977 143.107 21.5461L144.098 21.3538C144.763 21.2379 145.408 21.0647 146.06 20.9125C148.655 20.2675 151.2 19.4856 153.732 18.67ZM201.344 18.868C198.195 18.5019 195.03 18.2587 191.859 18.1116C188.687 17.9823 185.51 17.9779 182.337 18.0785C179.163 18.1867 175.995 18.4376 172.843 18.7859C169.691 19.1437 166.548 19.5678 163.426 20.1052C157.178 21.1539 150.98 22.484 144.874 24.1394C147.972 23.4983 151.072 22.8851 154.188 22.3503C157.299 21.795 160.418 21.2933 163.542 20.8361C166.668 20.3872 169.799 19.9817 172.939 19.6786C174.507 19.5111 176.079 19.3889 177.65 19.2647L180.009 19.1227C180.796 19.0743 181.584 19.0597 182.371 19.0253C188.67 18.7872 194.983 19.0234 201.268 19.6009C207.554 20.179 213.815 21.0775 220.069 22.0376C216.979 21.364 213.869 20.7763 210.752 20.2204C207.631 19.6869 204.495 19.2227 201.344 18.868ZM16.7125 23.8994C13.8719 24.4616 11.0464 25.1015 8.25011 25.8541C6.85384 26.2355 5.45977 26.629 4.0826 27.0747C2.70514 27.5192 1.33296 27.9871 0 28.5519C1.32171 27.961 2.68559 27.4657 4.05521 26.9939C5.42564 26.5227 6.81116 26.0942 8.20512 25.695C10.9942 24.901 13.8152 24.2184 16.6527 23.6129C19.4928 23.0169 22.3503 22.5088 25.2169 22.0523C28.0886 21.6244 30.9685 21.2494 33.8563 20.9616C39.6304 20.3599 45.4197 19.9345 51.2138 19.606C56.9675 19.2857 62.7225 19.0253 68.4877 18.9043C71.2608 17.0298 74.0924 15.2737 76.9744 13.5839C79.8932 11.8787 82.8618 10.2545 85.8971 8.75433C88.9322 7.25487 92.03 5.86617 95.2242 4.70226C96.818 4.1152 98.4389 3.58927 100.09 3.15566C101.738 2.72078 103.417 2.3674 105.124 2.16683C111.878 1.41805 118.66 1.26778 125.431 1.29134C132.203 1.35628 138.973 1.62754 145.721 2.22606C149.095 2.51195 152.463 2.8927 155.817 3.38935C157.495 3.62493 159.165 3.93055 160.833 4.24064L163.32 4.77674C164.147 4.96205 164.967 5.17342 165.79 5.37018C169.076 6.19156 172.337 7.0944 175.576 8.06542C178.817 9.02626 182.042 10.0348 185.259 11.0695C188.476 12.0997 191.684 13.1573 194.892 14.2098C196.497 14.7344 198.098 15.2712 199.705 15.7831C201.31 16.2957 202.922 16.8203 204.546 17.2119C205.353 17.4258 206.189 17.4316 207.029 17.4628L208.291 17.4513L209.554 17.4016C211.239 17.3151 212.922 17.1782 214.604 17.0139C217.964 16.6746 221.321 16.2772 224.667 15.8035C221.33 16.3377 217.984 16.8191 214.624 17.1998C212.943 17.389 211.259 17.5513 209.57 17.6634L208.3 17.7315L207.028 17.762C206.184 17.7442 205.311 17.7481 204.477 17.5411C202.81 17.1655 201.199 16.6656 199.58 16.1753C197.963 15.6838 196.352 15.177 194.742 14.667C191.523 13.6437 188.307 12.6148 185.083 11.6151C181.86 10.6104 178.629 9.63178 175.386 8.70213C172.145 7.76234 168.885 6.89132 165.609 6.10371C164.789 5.91521 163.97 5.71211 163.148 5.53573L160.675 5.02573C159.021 4.72265 157.365 4.42465 155.696 4.19542C152.362 3.71216 149.008 3.34286 145.647 3.0678C138.925 2.49157 132.173 2.24198 125.426 2.19677C118.68 2.18531 111.924 2.38714 105.232 3.09071C103.581 3.27918 101.944 3.61793 100.327 4.04007C98.7088 4.45968 97.1116 4.97224 95.5366 5.54719C92.3816 6.68629 89.3059 8.0533 86.2887 9.53244C83.2707 11.0134 80.3137 12.6199 77.4046 14.3072C74.5004 15.9983 71.6303 17.7671 68.8505 19.6384L68.7461 19.7085L68.6237 19.711C62.8339 19.8187 57.0376 20.0001 51.2499 20.2796C45.4607 20.5553 39.6763 20.9285 33.9092 21.4773C31.0244 21.7409 28.1503 22.0892 25.2799 22.4674C22.414 22.8813 19.5552 23.3461 16.7125 23.8994Z"/>
</mask>
<path d="M104.623 29.2294C98.3746 29.1791 92.126 29.1816 85.8771 29.1568C79.6288 29.1829 73.3802 29.1785 67.1316 29.23L57.7584 29.3179C54.6341 29.3701 51.5104 29.4013 48.3858 29.472C51.5104 29.5433 54.6341 29.5739 57.7584 29.6261L67.1316 29.7139C73.3802 29.7661 79.6288 29.7611 85.8771 29.7878C92.126 29.763 98.3746 29.7655 104.623 29.7152L113.996 29.6274C117.12 29.5745 120.245 29.5439 123.369 29.472C120.245 29.4007 117.12 29.3695 113.996 29.3173L104.623 29.2294ZM93.5255 16.863C91.8603 17.2406 90.1565 17.4914 88.4406 17.6385C89.3025 17.6589 90.165 17.6194 91.0269 17.5557C91.8892 17.494 92.7495 17.3921 93.6036 17.2399C94.4588 17.091 95.3073 16.8872 96.1374 16.6039C96.965 16.318 97.7829 15.9468 98.4948 15.3724L98.8063 15.1222L98.459 14.9102C97.3903 14.2582 96.27 13.7348 95.0891 13.3165C94.4952 13.1197 93.8862 12.9522 93.2566 12.8586C92.6281 12.765 91.9699 12.7352 91.3202 12.8943C90.6975 13.0458 90.1189 13.2554 89.5436 13.4795C88.9692 13.7042 88.4021 13.9398 87.8435 14.1932C87.2821 14.4409 86.7277 14.7039 86.1795 14.9764C85.6296 15.247 85.0814 15.5201 84.544 15.8156L86.2663 15.1751L87.9889 14.5466C89.1346 14.1423 90.2941 13.7106 91.4441 13.4515C91.993 13.3356 92.5817 13.375 93.1606 13.4642C93.7411 13.5559 94.3161 13.7195 94.8811 13.9137C95.8766 14.2486 96.8463 14.6988 97.7747 15.1948C97.2303 15.5819 96.6058 15.8825 95.9637 16.1365C95.1777 16.4402 94.355 16.6656 93.5255 16.863ZM191.244 28.5392C189.84 28.3991 188.425 28.3622 187.014 28.4036C184.193 28.5176 181.383 29.0002 178.707 29.8865C176.03 30.762 173.491 32.0451 171.236 33.6882C173.629 32.2486 176.198 31.1383 178.856 30.3551C181.517 29.5796 184.27 29.1345 187.037 29.0345C189.805 28.9327 192.585 29.1664 195.297 29.7426C198.008 30.3239 200.656 31.2305 203.163 32.4651C200.777 31.0154 198.146 29.9336 195.41 29.2618C194.043 28.918 192.648 28.6863 191.244 28.5392ZM27.5034 29.1715C25.5493 29.2523 23.6029 29.5911 21.7556 30.2195C19.9069 30.8377 18.1612 31.7489 16.6276 32.914C18.2981 31.9528 20.0747 31.214 21.9047 30.6881C23.7373 30.1705 25.6271 29.8693 27.5266 29.8024C29.4267 29.7311 31.3344 29.8872 33.2018 30.2673C35.0671 30.6544 36.8953 31.2522 38.6422 32.0703C37.0161 31.0371 35.2055 30.264 33.3144 29.7872C31.4245 29.2981 29.4575 29.1084 27.5034 29.1715ZM179.549 12.2308C177.767 11.7291 175.984 11.2325 174.193 10.7626C172.404 10.2863 170.607 9.83868 168.8 9.42038C170.556 10.0144 172.319 10.5798 174.091 11.1153C175.86 11.6578 177.638 12.1742 179.417 12.6848C181.199 13.1872 182.982 13.6832 184.774 14.1537C186.562 14.63 188.36 15.077 190.165 15.4953C188.411 14.9006 186.647 14.3352 184.876 13.7991C183.106 13.2572 181.328 12.7408 179.549 12.2308ZM136.927 18.3733C136.461 18.3886 135.994 18.4032 135.528 18.4223C133.637 18.4771 131.745 18.528 129.853 18.5649L118.497 18.7859L74.3857 19.513C77.7456 17.5309 81.1504 15.6144 84.5913 13.7717C86.5031 12.7454 88.4309 11.7476 90.3785 10.7906C92.3266 9.83486 94.2924 8.91416 96.2955 8.08644C98.2981 7.26761 100.336 6.48574 102.445 6.0623C104.574 5.68983 106.741 5.44021 108.907 5.24922C113.241 4.87672 117.598 4.73474 121.954 4.74682C117.599 4.61056 113.236 4.68125 108.884 4.97032C106.708 5.12504 104.536 5.31862 102.372 5.67452C100.201 6.08458 98.1432 6.84992 96.1152 7.65094C94.0878 8.46084 92.1029 9.36307 90.1359 10.299C88.1701 11.2369 86.2238 12.2149 84.2947 13.2222C80.4382 15.2432 76.6447 17.3705 72.8941 19.5843L71.7909 20.2357L73.0778 20.2191C80.6513 20.123 88.2235 20.0428 95.7955 19.9046L118.511 19.443C122.297 19.3609 126.083 19.2533 129.868 19.1253C131.76 19.0667 133.653 18.9935 135.546 18.9171C136.492 18.8827 137.44 18.8254 138.387 18.7802C138.859 18.7623 139.336 18.7184 139.812 18.6802L140.526 18.6216C140.765 18.5892 141.001 18.5535 141.236 18.5127C143.114 18.1791 144.953 17.7251 146.787 17.2469C148.619 16.7669 150.442 16.2575 152.26 15.7316C154.079 15.2056 155.891 14.6625 157.698 14.1009C158.602 13.8208 159.502 13.531 160.401 13.233L161.744 12.7759L162.411 12.5339C162.627 12.4442 162.862 12.378 163.053 12.2417C162.859 12.3728 162.623 12.4327 162.404 12.5167L161.732 12.7415L160.378 13.1643L157.658 13.9691C155.842 14.4963 154.019 15.0038 152.193 15.4953C150.366 15.9856 148.536 16.4599 146.699 16.905C144.861 17.3405 143.02 17.7869 141.166 18.0893C139.98 18.2485 138.775 18.3071 137.565 18.3498L139.321 6.95305L136.927 18.3733ZM153.732 18.67C158.795 17.0311 163.778 15.1916 168.731 13.2636L169.229 13.0701L168.846 12.7084C167.709 11.6355 166.526 10.6346 165.279 9.69543C164.652 9.23062 164.008 8.7862 163.337 8.3774C162.666 7.97116 161.963 7.59487 161.191 7.34783L160.904 7.25294L160.615 7.18228L160.038 7.04349C159.652 6.97536 159.267 6.89321 158.881 6.83654C158.108 6.71618 157.335 6.6245 156.562 6.53854C155.015 6.3781 153.466 6.2686 151.917 6.17436C148.818 5.99161 145.72 5.86873 142.621 5.75092C139.523 5.63123 136.425 5.53573 133.325 5.43639L142.611 5.98016C145.705 6.16161 148.799 6.34821 151.886 6.59395C153.429 6.72258 154.97 6.8614 156.505 7.03585C157.271 7.13075 158.036 7.23069 158.793 7.35869C159.173 7.41982 159.544 7.50385 159.921 7.57514L160.472 7.7152L160.746 7.78589L161.01 7.87696C161.711 8.10998 162.381 8.47611 163.025 8.87787C163.668 9.28156 164.292 9.7228 164.9 10.1857C165.966 11.0096 166.99 11.9011 167.968 12.8243C165.659 13.6902 163.336 14.5294 161.007 15.3444C158.503 16.2129 156 17.0852 153.475 17.8856C150.952 18.6866 148.415 19.4538 145.853 20.0791C145.212 20.2261 144.572 20.3949 143.928 20.5038L142.964 20.6871C142.642 20.7349 142.322 20.7654 142.001 20.8062L141.521 20.8641L141.027 20.8845L140.04 20.9259C139.385 20.959 138.717 20.9622 138.055 20.9813C132.75 21.1042 127.435 21.1507 122.123 21.2328L106.185 21.4735L90.2458 21.7161L74.3077 22.0523C68.995 22.1758 63.6815 22.2987 58.3704 22.4814C53.0599 22.6775 47.7467 22.8399 42.4438 23.1933C53.0657 22.8456 63.6922 22.7991 74.3177 22.6629L90.2567 22.5203L106.196 22.3445C116.824 22.2267 127.447 22.1529 138.08 21.8727C138.747 21.8504 139.407 21.8447 140.078 21.8084L141.082 21.7619L141.583 21.739L142.092 21.6766C142.43 21.6327 142.772 21.5977 143.107 21.5461L144.098 21.3538C144.763 21.2379 145.408 21.0647 146.06 20.9125C148.655 20.2675 151.2 19.4856 153.732 18.67ZM201.344 18.868C198.195 18.5019 195.03 18.2587 191.859 18.1116C188.687 17.9823 185.51 17.9779 182.337 18.0785C179.163 18.1867 175.995 18.4376 172.843 18.7859C169.691 19.1437 166.548 19.5678 163.426 20.1052C157.178 21.1539 150.98 22.484 144.874 24.1394C147.972 23.4983 151.072 22.8851 154.188 22.3503C157.299 21.795 160.418 21.2933 163.542 20.8361C166.668 20.3872 169.799 19.9817 172.939 19.6786C174.507 19.5111 176.079 19.3889 177.65 19.2647L180.009 19.1227C180.796 19.0743 181.584 19.0597 182.371 19.0253C188.67 18.7872 194.983 19.0234 201.268 19.6009C207.554 20.179 213.815 21.0775 220.069 22.0376C216.979 21.364 213.869 20.7763 210.752 20.2204C207.631 19.6869 204.495 19.2227 201.344 18.868ZM16.7125 23.8994C13.8719 24.4616 11.0464 25.1015 8.25011 25.8541C6.85384 26.2355 5.45977 26.629 4.0826 27.0747C2.70514 27.5192 1.33296 27.9871 0 28.5519C1.32171 27.961 2.68559 27.4657 4.05521 26.9939C5.42564 26.5227 6.81116 26.0942 8.20512 25.695C10.9942 24.901 13.8152 24.2184 16.6527 23.6129C19.4928 23.0169 22.3503 22.5088 25.2169 22.0523C28.0886 21.6244 30.9685 21.2494 33.8563 20.9616C39.6304 20.3599 45.4197 19.9345 51.2138 19.606C56.9675 19.2857 62.7225 19.0253 68.4877 18.9043C71.2608 17.0298 74.0924 15.2737 76.9744 13.5839C79.8932 11.8787 82.8618 10.2545 85.8971 8.75433C88.9322 7.25487 92.03 5.86617 95.2242 4.70226C96.818 4.1152 98.4389 3.58927 100.09 3.15566C101.738 2.72078 103.417 2.3674 105.124 2.16683C111.878 1.41805 118.66 1.26778 125.431 1.29134C132.203 1.35628 138.973 1.62754 145.721 2.22606C149.095 2.51195 152.463 2.8927 155.817 3.38935C157.495 3.62493 159.165 3.93055 160.833 4.24064L163.32 4.77674C164.147 4.96205 164.967 5.17342 165.79 5.37018C169.076 6.19156 172.337 7.0944 175.576 8.06542C178.817 9.02626 182.042 10.0348 185.259 11.0695C188.476 12.0997 191.684 13.1573 194.892 14.2098C196.497 14.7344 198.098 15.2712 199.705 15.7831C201.31 16.2957 202.922 16.8203 204.546 17.2119C205.353 17.4258 206.189 17.4316 207.029 17.4628L208.291 17.4513L209.554 17.4016C211.239 17.3151 212.922 17.1782 214.604 17.0139C217.964 16.6746 221.321 16.2772 224.667 15.8035C221.33 16.3377 217.984 16.8191 214.624 17.1998C212.943 17.389 211.259 17.5513 209.57 17.6634L208.3 17.7315L207.028 17.762C206.184 17.7442 205.311 17.7481 204.477 17.5411C202.81 17.1655 201.199 16.6656 199.58 16.1753C197.963 15.6838 196.352 15.177 194.742 14.667C191.523 13.6437 188.307 12.6148 185.083 11.6151C181.86 10.6104 178.629 9.63178 175.386 8.70213C172.145 7.76234 168.885 6.89132 165.609 6.10371C164.789 5.91521 163.97 5.71211 163.148 5.53573L160.675 5.02573C159.021 4.72265 157.365 4.42465 155.696 4.19542C152.362 3.71216 149.008 3.34286 145.647 3.0678C138.925 2.49157 132.173 2.24198 125.426 2.19677C118.68 2.18531 111.924 2.38714 105.232 3.09071C103.581 3.27918 101.944 3.61793 100.327 4.04007C98.7088 4.45968 97.1116 4.97224 95.5366 5.54719C92.3816 6.68629 89.3059 8.0533 86.2887 9.53244C83.2707 11.0134 80.3137 12.6199 77.4046 14.3072C74.5004 15.9983 71.6303 17.7671 68.8505 19.6384L68.7461 19.7085L68.6237 19.711C62.8339 19.8187 57.0376 20.0001 51.2499 20.2796C45.4607 20.5553 39.6763 20.9285 33.9092 21.4773C31.0244 21.7409 28.1503 22.0892 25.2799 22.4674C22.414 22.8813 19.5552 23.3461 16.7125 23.8994Z" fill="#3AC22C"/>
<path d="M104.623 29.2294C98.3746 29.1791 92.126 29.1816 85.8771 29.1568C79.6288 29.1829 73.3802 29.1785 67.1316 29.23L57.7584 29.3179C54.6341 29.3701 51.5104 29.4013 48.3858 29.472C51.5104 29.5433 54.6341 29.5739 57.7584 29.6261L67.1316 29.7139C73.3802 29.7661 79.6288 29.7611 85.8771 29.7878C92.126 29.763 98.3746 29.7655 104.623 29.7152L113.996 29.6274C117.12 29.5745 120.245 29.5439 123.369 29.472C120.245 29.4007 117.12 29.3695 113.996 29.3173L104.623 29.2294ZM93.5255 16.863C91.8603 17.2406 90.1565 17.4914 88.4406 17.6385C89.3025 17.6589 90.165 17.6194 91.0269 17.5557C91.8892 17.494 92.7495 17.3921 93.6036 17.2399C94.4588 17.091 95.3073 16.8872 96.1374 16.6039C96.965 16.318 97.7829 15.9468 98.4948 15.3724L98.8063 15.1222L98.459 14.9102C97.3903 14.2582 96.27 13.7348 95.0891 13.3165C94.4952 13.1197 93.8862 12.9522 93.2566 12.8586C92.6281 12.765 91.9699 12.7352 91.3202 12.8943C90.6975 13.0458 90.1189 13.2554 89.5436 13.4795C88.9692 13.7042 88.4021 13.9398 87.8435 14.1932C87.2821 14.4409 86.7277 14.7039 86.1795 14.9764C85.6296 15.247 85.0814 15.5201 84.544 15.8156L86.2663 15.1751L87.9889 14.5466C89.1346 14.1423 90.2941 13.7106 91.4441 13.4515C91.993 13.3356 92.5817 13.375 93.1606 13.4642C93.7411 13.5559 94.3161 13.7195 94.8811 13.9137C95.8766 14.2486 96.8463 14.6988 97.7747 15.1948C97.2303 15.5819 96.6058 15.8825 95.9637 16.1365C95.1777 16.4402 94.355 16.6656 93.5255 16.863ZM191.244 28.5392C189.84 28.3991 188.425 28.3622 187.014 28.4036C184.193 28.5176 181.383 29.0002 178.707 29.8865C176.03 30.762 173.491 32.0451 171.236 33.6882C173.629 32.2486 176.198 31.1383 178.856 30.3551C181.517 29.5796 184.27 29.1345 187.037 29.0345C189.805 28.9327 192.585 29.1664 195.297 29.7426C198.008 30.3239 200.656 31.2305 203.163 32.4651C200.777 31.0154 198.146 29.9336 195.41 29.2618C194.043 28.918 192.648 28.6863 191.244 28.5392ZM27.5034 29.1715C25.5493 29.2523 23.6029 29.5911 21.7556 30.2195C19.9069 30.8377 18.1612 31.7489 16.6276 32.914C18.2981 31.9528 20.0747 31.214 21.9047 30.6881C23.7373 30.1705 25.6271 29.8693 27.5266 29.8024C29.4267 29.7311 31.3344 29.8872 33.2018 30.2673C35.0671 30.6544 36.8953 31.2522 38.6422 32.0703C37.0161 31.0371 35.2055 30.264 33.3144 29.7872C31.4245 29.2981 29.4575 29.1084 27.5034 29.1715ZM179.549 12.2308C177.767 11.7291 175.984 11.2325 174.193 10.7626C172.404 10.2863 170.607 9.83868 168.8 9.42038C170.556 10.0144 172.319 10.5798 174.091 11.1153C175.86 11.6578 177.638 12.1742 179.417 12.6848C181.199 13.1872 182.982 13.6832 184.774 14.1537C186.562 14.63 188.36 15.077 190.165 15.4953C188.411 14.9006 186.647 14.3352 184.876 13.7991C183.106 13.2572 181.328 12.7408 179.549 12.2308ZM136.927 18.3733C136.461 18.3886 135.994 18.4032 135.528 18.4223C133.637 18.4771 131.745 18.528 129.853 18.5649L118.497 18.7859L74.3857 19.513C77.7456 17.5309 81.1504 15.6144 84.5913 13.7717C86.5031 12.7454 88.4309 11.7476 90.3785 10.7906C92.3266 9.83486 94.2924 8.91416 96.2955 8.08644C98.2981 7.26761 100.336 6.48574 102.445 6.0623C104.574 5.68983 106.741 5.44021 108.907 5.24922C113.241 4.87672 117.598 4.73474 121.954 4.74682C117.599 4.61056 113.236 4.68125 108.884 4.97032C106.708 5.12504 104.536 5.31862 102.372 5.67452C100.201 6.08458 98.1432 6.84992 96.1152 7.65094C94.0878 8.46084 92.1029 9.36307 90.1359 10.299C88.1701 11.2369 86.2238 12.2149 84.2947 13.2222C80.4382 15.2432 76.6447 17.3705 72.8941 19.5843L71.7909 20.2357L73.0778 20.2191C80.6513 20.123 88.2235 20.0428 95.7955 19.9046L118.511 19.443C122.297 19.3609 126.083 19.2533 129.868 19.1253C131.76 19.0667 133.653 18.9935 135.546 18.9171C136.492 18.8827 137.44 18.8254 138.387 18.7802C138.859 18.7623 139.336 18.7184 139.812 18.6802L140.526 18.6216C140.765 18.5892 141.001 18.5535 141.236 18.5127C143.114 18.1791 144.953 17.7251 146.787 17.2469C148.619 16.7669 150.442 16.2575 152.26 15.7316C154.079 15.2056 155.891 14.6625 157.698 14.1009C158.602 13.8208 159.502 13.531 160.401 13.233L161.744 12.7759L162.411 12.5339C162.627 12.4442 162.862 12.378 163.053 12.2417C162.859 12.3728 162.623 12.4327 162.404 12.5167L161.732 12.7415L160.378 13.1643L157.658 13.9691C155.842 14.4963 154.019 15.0038 152.193 15.4953C150.366 15.9856 148.536 16.4599 146.699 16.905C144.861 17.3405 143.02 17.7869 141.166 18.0893C139.98 18.2485 138.775 18.3071 137.565 18.3498L139.321 6.95305L136.927 18.3733ZM153.732 18.67C158.795 17.0311 163.778 15.1916 168.731 13.2636L169.229 13.0701L168.846 12.7084C167.709 11.6355 166.526 10.6346 165.279 9.69543C164.652 9.23062 164.008 8.7862 163.337 8.3774C162.666 7.97116 161.963 7.59487 161.191 7.34783L160.904 7.25294L160.615 7.18228L160.038 7.04349C159.652 6.97536 159.267 6.89321 158.881 6.83654C158.108 6.71618 157.335 6.6245 156.562 6.53854C155.015 6.3781 153.466 6.2686 151.917 6.17436C148.818 5.99161 145.72 5.86873 142.621 5.75092C139.523 5.63123 136.425 5.53573 133.325 5.43639L142.611 5.98016C145.705 6.16161 148.799 6.34821 151.886 6.59395C153.429 6.72258 154.97 6.8614 156.505 7.03585C157.271 7.13075 158.036 7.23069 158.793 7.35869C159.173 7.41982 159.544 7.50385 159.921 7.57514L160.472 7.7152L160.746 7.78589L161.01 7.87696C161.711 8.10998 162.381 8.47611 163.025 8.87787C163.668 9.28156 164.292 9.7228 164.9 10.1857C165.966 11.0096 166.99 11.9011 167.968 12.8243C165.659 13.6902 163.336 14.5294 161.007 15.3444C158.503 16.2129 156 17.0852 153.475 17.8856C150.952 18.6866 148.415 19.4538 145.853 20.0791C145.212 20.2261 144.572 20.3949 143.928 20.5038L142.964 20.6871C142.642 20.7349 142.322 20.7654 142.001 20.8062L141.521 20.8641L141.027 20.8845L140.04 20.9259C139.385 20.959 138.717 20.9622 138.055 20.9813C132.75 21.1042 127.435 21.1507 122.123 21.2328L106.185 21.4735L90.2458 21.7161L74.3077 22.0523C68.995 22.1758 63.6815 22.2987 58.3704 22.4814C53.0599 22.6775 47.7467 22.8399 42.4438 23.1933C53.0657 22.8456 63.6922 22.7991 74.3177 22.6629L90.2567 22.5203L106.196 22.3445C116.824 22.2267 127.447 22.1529 138.08 21.8727C138.747 21.8504 139.407 21.8447 140.078 21.8084L141.082 21.7619L141.583 21.739L142.092 21.6766C142.43 21.6327 142.772 21.5977 143.107 21.5461L144.098 21.3538C144.763 21.2379 145.408 21.0647 146.06 20.9125C148.655 20.2675 151.2 19.4856 153.732 18.67ZM201.344 18.868C198.195 18.5019 195.03 18.2587 191.859 18.1116C188.687 17.9823 185.51 17.9779 182.337 18.0785C179.163 18.1867 175.995 18.4376 172.843 18.7859C169.691 19.1437 166.548 19.5678 163.426 20.1052C157.178 21.1539 150.98 22.484 144.874 24.1394C147.972 23.4983 151.072 22.8851 154.188 22.3503C157.299 21.795 160.418 21.2933 163.542 20.8361C166.668 20.3872 169.799 19.9817 172.939 19.6786C174.507 19.5111 176.079 19.3889 177.65 19.2647L180.009 19.1227C180.796 19.0743 181.584 19.0597 182.371 19.0253C188.67 18.7872 194.983 19.0234 201.268 19.6009C207.554 20.179 213.815 21.0775 220.069 22.0376C216.979 21.364 213.869 20.7763 210.752 20.2204C207.631 19.6869 204.495 19.2227 201.344 18.868ZM16.7125 23.8994C13.8719 24.4616 11.0464 25.1015 8.25011 25.8541C6.85384 26.2355 5.45977 26.629 4.0826 27.0747C2.70514 27.5192 1.33296 27.9871 0 28.5519C1.32171 27.961 2.68559 27.4657 4.05521 26.9939C5.42564 26.5227 6.81116 26.0942 8.20512 25.695C10.9942 24.901 13.8152 24.2184 16.6527 23.6129C19.4928 23.0169 22.3503 22.5088 25.2169 22.0523C28.0886 21.6244 30.9685 21.2494 33.8563 20.9616C39.6304 20.3599 45.4197 19.9345 51.2138 19.606C56.9675 19.2857 62.7225 19.0253 68.4877 18.9043C71.2608 17.0298 74.0924 15.2737 76.9744 13.5839C79.8932 11.8787 82.8618 10.2545 85.8971 8.75433C88.9322 7.25487 92.03 5.86617 95.2242 4.70226C96.818 4.1152 98.4389 3.58927 100.09 3.15566C101.738 2.72078 103.417 2.3674 105.124 2.16683C111.878 1.41805 118.66 1.26778 125.431 1.29134C132.203 1.35628 138.973 1.62754 145.721 2.22606C149.095 2.51195 152.463 2.8927 155.817 3.38935C157.495 3.62493 159.165 3.93055 160.833 4.24064L163.32 4.77674C164.147 4.96205 164.967 5.17342 165.79 5.37018C169.076 6.19156 172.337 7.0944 175.576 8.06542C178.817 9.02626 182.042 10.0348 185.259 11.0695C188.476 12.0997 191.684 13.1573 194.892 14.2098C196.497 14.7344 198.098 15.2712 199.705 15.7831C201.31 16.2957 202.922 16.8203 204.546 17.2119C205.353 17.4258 206.189 17.4316 207.029 17.4628L208.291 17.4513L209.554 17.4016C211.239 17.3151 212.922 17.1782 214.604 17.0139C217.964 16.6746 221.321 16.2772 224.667 15.8035C221.33 16.3377 217.984 16.8191 214.624 17.1998C212.943 17.389 211.259 17.5513 209.57 17.6634L208.3 17.7315L207.028 17.762C206.184 17.7442 205.311 17.7481 204.477 17.5411C202.81 17.1655 201.199 16.6656 199.58 16.1753C197.963 15.6838 196.352 15.177 194.742 14.667C191.523 13.6437 188.307 12.6148 185.083 11.6151C181.86 10.6104 178.629 9.63178 175.386 8.70213C172.145 7.76234 168.885 6.89132 165.609 6.10371C164.789 5.91521 163.97 5.71211 163.148 5.53573L160.675 5.02573C159.021 4.72265 157.365 4.42465 155.696 4.19542C152.362 3.71216 149.008 3.34286 145.647 3.0678C138.925 2.49157 132.173 2.24198 125.426 2.19677C118.68 2.18531 111.924 2.38714 105.232 3.09071C103.581 3.27918 101.944 3.61793 100.327 4.04007C98.7088 4.45968 97.1116 4.97224 95.5366 5.54719C92.3816 6.68629 89.3059 8.0533 86.2887 9.53244C83.2707 11.0134 80.3137 12.6199 77.4046 14.3072C74.5004 15.9983 71.6303 17.7671 68.8505 19.6384L68.7461 19.7085L68.6237 19.711C62.8339 19.8187 57.0376 20.0001 51.2499 20.2796C45.4607 20.5553 39.6763 20.9285 33.9092 21.4773C31.0244 21.7409 28.1503 22.0892 25.2799 22.4674C22.414 22.8813 19.5552 23.3461 16.7125 23.8994Z" stroke="#3AC22C" stroke-width="1.22252" mask="url(#path-2-outside-1_287_464)"/>
</g>
</g>
<defs>
<clipPath id="clip0_287_464">
<rect width="228" height="58" fill="white"/>
</clipPath>
</defs>
</svg>
