<svg width="50" height="50" viewBox="0 0 50 50" fill="none" xmlns="http://www.w3.org/2000/svg">
<g id="contract (1) 1">
<path id="Vector" d="M1.46484 8.78906H10.2539V35.2539H1.46484V8.78906Z" fill="#1D1D22"/>
<path id="Vector_2" d="M1.46484 38.435C1.46484 41.2891 2.50092 43.9838 4.39453 46.0903V48.5352C4.39453 49.3443 5.05028 50 5.85938 50C6.66847 50 7.32422 49.3443 7.32422 48.5352V46.0903C9.21783 43.9838 10.2539 41.2891 10.2539 38.435V38.1836H1.46484V38.435Z" fill="#1D1D22"/>
<path id="Vector_3" d="M5.85938 0C3.43628 0 1.46484 1.97144 1.46484 4.39453V5.85938H10.2539V4.39453C10.2539 1.97144 8.28247 0 5.85938 0Z" fill="#1D1D22"/>
<path id="Vector_4" d="M47.0703 0H14.6484C13.8393 0 13.1836 0.655746 13.1836 1.46484V48.5352C13.1836 49.3443 13.8393 50 14.6484 50H47.0703C47.8794 50 48.5352 49.3443 48.5352 48.5352V1.46484C48.5352 0.655746 47.8794 0 47.0703 0ZM26.4648 8.78906H35.2539C36.063 8.78906 36.7188 9.44481 36.7188 10.2539C36.7188 11.063 36.063 11.7188 35.2539 11.7188H26.4648C25.6557 11.7188 25 11.063 25 10.2539C25 9.44481 25.6557 8.78906 26.4648 8.78906ZM42.0704 40.7574C42.0208 40.8001 40.8375 41.8182 39.4688 42.7208C38.3362 43.4677 36.9972 44.2192 35.8009 44.2196C35.2757 44.2196 34.7778 44.0742 34.3369 43.7202C33.6685 43.1839 33.5827 42.4309 33.6613 41.7343C33.289 42.0017 32.9151 42.292 32.642 42.5037C32.0763 42.9428 31.5418 43.3575 31.0535 43.6489C29.7226 44.442 28.8792 44.0922 28.4054 43.6588C27.1019 42.4656 27.5131 40.4957 27.8435 38.913C27.8831 38.7241 27.9297 38.501 27.9713 38.2805C27.409 38.5998 26.5308 39.1884 25.2186 40.2725C23.674 41.5482 22.1832 42.9718 21.5458 43.6119C20.9747 44.1849 20.0474 44.1868 19.474 43.6161C18.9011 43.045 18.8992 42.1173 19.4698 41.5443C20.1916 40.8199 21.8666 39.2239 23.5683 37.8368C26.8566 35.1566 28.2013 34.8927 29.0829 34.9876C29.7367 35.0582 30.286 35.3931 30.629 35.9303C31.2546 36.9099 30.991 38.1737 30.7114 39.5119C30.6591 39.7614 30.5889 40.0978 30.5321 40.432C30.6427 40.3469 30.7491 40.2645 30.8456 40.1894C32.5436 38.8718 34.2991 37.5095 35.9241 38.3461C36.2469 38.512 36.9888 39.0339 36.9095 40.2893C36.8965 40.4919 36.8649 40.6952 36.8244 40.897C37.7457 40.4037 39.0453 39.4985 40.1562 38.5395C40.7688 38.0112 41.6939 38.0791 42.2222 38.6913C42.7509 39.304 42.6826 40.2287 42.0704 40.7574ZM41.1133 32.3242H20.5078C19.6987 32.3242 19.043 31.6685 19.043 30.8594C19.043 30.0503 19.6987 29.3945 20.5078 29.3945H41.1133C41.9224 29.3945 42.5781 30.0503 42.5781 30.8594C42.5781 31.6685 41.9224 32.3242 41.1133 32.3242ZM41.1133 26.4648H20.5078C19.6987 26.4648 19.043 25.8091 19.043 25C19.043 24.1909 19.6987 23.5352 20.5078 23.5352H41.1133C41.9224 23.5352 42.5781 24.1909 42.5781 25C42.5781 25.8091 41.9224 26.4648 41.1133 26.4648ZM41.1133 20.6055H20.5078C19.6987 20.6055 19.043 19.9497 19.043 19.1406C19.043 18.3315 19.6987 17.6758 20.5078 17.6758H41.1133C41.9224 17.6758 42.5781 18.3315 42.5781 19.1406C42.5781 19.9497 41.9224 20.6055 41.1133 20.6055Z" fill="#1D1D22"/>
</g>
</svg>
