<svg width="50" height="50" viewBox="0 0 50 50" fill="none" xmlns="http://www.w3.org/2000/svg">
<g id="camera 1">
<g id="_x30_9_camera_photography">
<g id="Group">
<path id="Vector" d="M25 20.3125C20.6922 20.3125 17.1875 23.8172 17.1875 28.125C17.1875 32.4328 20.6922 35.9375 25 35.9375C29.3078 35.9375 32.8125 32.4328 32.8125 28.125C32.8125 23.8172 29.3078 20.3125 25 20.3125ZM29.6875 29.6875C28.8234 29.6875 28.125 28.9875 28.125 28.125C28.125 26.4016 26.7234 25 25 25C24.1359 25 23.4375 24.3 23.4375 23.4375C23.4375 22.575 24.1359 21.875 25 21.875C28.4469 21.875 31.25 24.6781 31.25 28.125C31.25 28.9875 30.5516 29.6875 29.6875 29.6875Z" fill="#1D1D22"/>
<g id="Group_2">
<path id="Vector_2" d="M33.6406 10.9375L32.7656 7.43281C32.5906 6.73906 31.9672 6.25 31.25 6.25H18.75C18.0328 6.25 17.4094 6.73906 17.2344 7.43281L16.3594 10.9375H33.6406Z" fill="#1D1D22"/>
<path id="Vector_3" d="M43.75 12.5H34.0312H15.9688H6.25C3.66562 12.5 1.5625 14.6031 1.5625 17.1875V39.0625C1.5625 41.6469 3.66562 43.75 6.25 43.75H43.75C46.3344 43.75 48.4375 41.6469 48.4375 39.0625V17.1875C48.4375 14.6031 46.3344 12.5 43.75 12.5ZM9.375 21.875C8.51094 21.875 7.8125 21.175 7.8125 20.3125C7.8125 19.45 8.51094 18.75 9.375 18.75C10.2391 18.75 10.9375 19.45 10.9375 20.3125C10.9375 21.175 10.2391 21.875 9.375 21.875ZM25 39.0625C18.9703 39.0625 14.0625 34.1562 14.0625 28.125C14.0625 22.0938 18.9703 17.1875 25 17.1875C31.0297 17.1875 35.9375 22.0938 35.9375 28.125C35.9375 34.1562 31.0297 39.0625 25 39.0625Z" fill="#1D1D22"/>
</g>
</g>
</g>
</g>
</svg>
