<svg width="50" height="50" viewBox="0 0 50 50" fill="none" xmlns="http://www.w3.org/2000/svg">
<g id="car 1" clip-path="url(#clip0_219_313)">
<g id="Group">
<path id="Vector" d="M0 33.3008C0 36.2672 2.40469 38.6719 5.37109 38.6719H44.6289C47.5953 38.6719 50 36.2672 50 33.3008H0Z" fill="#1D1D22"/>
<path id="Vector_2" d="M15.2344 24.0234C16.0434 24.0234 16.6992 23.3676 16.6992 22.5586C16.6992 21.7496 16.0434 21.0938 15.2344 21.0938C14.4254 21.0938 13.7695 21.7496 13.7695 22.5586C13.7695 23.3676 14.4254 24.0234 15.2344 24.0234Z" fill="#1D1D22"/>
<path id="Vector_3" d="M19.6289 7.42188H14.0352C13.0232 7.42188 12.1045 8.0585 11.7492 9.00605L10.5122 12.3047H19.6289V7.42188Z" fill="#1D1D22"/>
<path id="Vector_4" d="M29.1992 8.78906C28.5572 7.93291 27.535 7.42188 26.4648 7.42188H22.5586V12.3047H31.8359L29.1992 8.78906Z" fill="#1D1D22"/>
<path id="Vector_5" d="M44.6289 0.0976562H5.37109C2.40947 0.0976562 0 2.50713 0 5.46875V30.3711H50V5.46875C50 2.50713 47.5905 0.0976562 44.6289 0.0976562ZM43.0664 22.5586C43.0664 23.3676 42.4105 24.0234 41.6016 24.0234H38.9082C38.3035 25.7284 36.6753 26.9531 34.7656 26.9531C32.856 26.9531 31.2277 25.7284 30.623 24.0234H19.377C18.7723 25.7284 17.144 26.9531 15.2344 26.9531C13.3247 26.9531 11.6965 25.7284 11.0918 24.0234H8.39844C7.58945 24.0234 6.93359 23.3676 6.93359 22.5586V13.7695C6.93359 13.5938 6.96514 13.4196 7.02686 13.2552L9.00605 7.97734C9.78779 5.89277 11.8088 4.49219 14.0352 4.49219H26.4648C28.4522 4.49219 30.3506 5.44141 31.543 7.03125L35.498 12.3047H35.7422C39.7808 12.3047 43.0664 15.5903 43.0664 19.6289V22.5586Z" fill="#1D1D22"/>
<path id="Vector_6" d="M34.7656 24.0234C35.5746 24.0234 36.2305 23.3676 36.2305 22.5586C36.2305 21.7496 35.5746 21.0938 34.7656 21.0938C33.9566 21.0938 33.3008 21.7496 33.3008 22.5586C33.3008 23.3676 33.9566 24.0234 34.7656 24.0234Z" fill="#1D1D22"/>
<path id="Vector_7" d="M35.7422 15.2344H9.86328V21.0938H11.0918C11.6965 19.3888 13.3247 18.1641 15.2344 18.1641C17.144 18.1641 18.7723 19.3888 19.377 21.0938H30.623C31.2277 19.3888 32.856 18.1641 34.7656 18.1641C36.6753 18.1641 38.3035 19.3888 38.9082 21.0938H40.1367V19.6289C40.1367 17.2058 38.1653 15.2344 35.7422 15.2344Z" fill="#1D1D22"/>
<path id="Vector_8" d="M40.625 46.9727H37.9451C35.5685 46.0964 33.8692 44.0402 33.42 41.6016H16.5801C16.1308 44.0402 14.4315 46.0964 12.055 46.9727H9.375C8.56602 46.9727 7.91016 47.6285 7.91016 48.4375C7.91016 49.2465 8.56602 49.9023 9.375 49.9023H40.625C41.434 49.9023 42.0898 49.2465 42.0898 48.4375C42.0898 47.6285 41.434 46.9727 40.625 46.9727Z" fill="#1D1D22"/>
</g>
</g>
<defs>
<clipPath id="clip0_219_313">
<rect width="50" height="50" fill="white"/>
</clipPath>
</defs>
</svg>
