<svg width="50" height="50" viewBox="0 0 50 50" fill="none" xmlns="http://www.w3.org/2000/svg">
<g id="custom-clearance 1" clip-path="url(#clip0_219_335)">
<g id="Group">
<path id="Vector" d="M40.4731 -0.35083H9.52694C8.32645 -0.350386 7.17527 0.1267 6.3264 0.975569C5.47753 1.82444 5.00044 2.97562 5 4.17611V45.8239C5.00044 47.0244 5.47753 48.1756 6.3264 49.0244C7.17527 49.8733 8.32645 50.3504 9.52694 50.3508H40.4731C41.6735 50.3504 42.8247 49.8733 43.6736 49.0244C44.5225 48.1756 44.9996 47.0244 45 45.8239V4.17611C44.9996 2.97562 44.5225 1.82444 43.6736 0.975569C42.8247 0.1267 41.6735 -0.350386 40.4731 -0.35083ZM12.3246 19.9298H17.0326C17.7523 19.932 18.442 20.2188 18.9509 20.7277C19.4598 21.2366 19.7466 21.9263 19.7488 22.646V27.354C19.7466 28.0737 19.4598 28.7634 18.9509 29.2723C18.442 29.7812 17.7523 30.0681 17.0326 30.0702H12.3246C11.6049 30.0681 10.9152 29.7812 10.4063 29.2723C9.89736 28.7634 9.61052 28.0737 9.60842 27.354V22.646C9.61053 21.9263 9.89737 21.2366 10.4063 20.7277C10.9152 20.2188 11.6049 19.9319 12.3246 19.9298ZM9.60842 12.5962V7.88819C9.61053 7.16847 9.89737 6.47883 10.4063 5.96991C10.9152 5.46098 11.6049 5.17414 12.3246 5.17203H17.0326C17.7523 5.17415 18.442 5.46099 18.9509 5.96991C19.4598 6.47883 19.7466 7.16847 19.7488 7.88819V12.5962C19.7466 13.3159 19.4598 14.0056 18.9509 14.5145C18.442 15.0234 17.7523 15.3103 17.0326 15.3124H12.3246C11.6049 15.3103 10.9152 15.0234 10.4063 14.5145C9.89736 14.0056 9.61052 13.3159 9.60842 12.5962ZM12.3246 34.6876H17.0326C17.7523 34.6898 18.442 34.9766 18.9509 35.4855C19.4598 35.9944 19.7466 36.6841 19.7488 37.4038V42.1118C19.7466 42.8315 19.4598 43.5212 18.9509 44.0301C18.442 44.539 17.7523 44.8259 17.0326 44.828H12.3246C11.6049 44.8259 10.9152 44.539 10.4063 44.0301C9.89736 43.5212 9.61052 42.8316 9.60842 42.1118V37.4038C9.61052 36.6841 9.89736 35.9944 10.4063 35.4855C10.9152 34.9766 11.6049 34.6898 12.3246 34.6876ZM22.0937 22.4106H37.5668C37.8045 22.4143 38.0312 22.5113 38.198 22.6807C38.3648 22.8501 38.4582 23.0783 38.4582 23.316C38.4582 23.5537 38.3648 23.7819 38.198 23.9513C38.0312 24.1207 37.8045 24.2177 37.5668 24.2214H22.0937C21.856 24.2177 21.6293 24.1207 21.4625 23.9513C21.2957 23.7819 21.2022 23.5537 21.2022 23.316C21.2022 23.0783 21.2957 22.8501 21.4625 22.6807C21.6293 22.5113 21.856 22.4143 22.0937 22.4106ZM21.1883 11.9262C21.189 11.6863 21.2847 11.4564 21.4543 11.2868C21.6239 11.1172 21.8538 11.0215 22.0937 11.0208H34.7601C35.0002 11.0208 35.2305 11.1162 35.4003 11.286C35.5701 11.4558 35.6655 11.6861 35.6655 11.9262C35.6655 12.1663 35.5701 12.3966 35.4003 12.5664C35.2305 12.7362 35.0002 12.8316 34.7601 12.8316H22.0937C21.8538 12.8309 21.6239 12.7353 21.4543 12.5656C21.2847 12.396 21.189 12.1661 21.1883 11.9262ZM22.0937 25.7786H34.7601C34.9979 25.7822 35.2247 25.8791 35.3916 26.0485C35.5586 26.2179 35.6521 26.4462 35.6521 26.684C35.6521 26.9219 35.5586 27.1501 35.3916 27.3195C35.2247 27.4889 34.9979 27.5859 34.7601 27.5894H22.0937C21.856 27.5857 21.6293 27.4887 21.4625 27.3193C21.2957 27.1499 21.2022 26.9218 21.2022 26.684C21.2022 26.4463 21.2957 26.2181 21.4625 26.0487C21.6293 25.8793 21.856 25.7823 22.0937 25.7786ZM22.0937 37.1684H37.5668C37.8045 37.1721 38.0312 37.2691 38.198 37.4385C38.3648 37.6079 38.4582 37.8361 38.4582 38.0738C38.4582 38.3115 38.3648 38.5397 38.198 38.7091C38.0312 38.8785 37.8045 38.9755 37.5668 38.9792H22.0937C21.856 38.9755 21.6293 38.8785 21.4625 38.7091C21.2957 38.5397 21.2022 38.3115 21.2022 38.0738C21.2022 37.8361 21.2957 37.6079 21.4625 37.4385C21.6293 37.2691 21.856 37.1721 22.0937 37.1684ZM22.0937 40.5364H34.7601C34.9979 40.54 35.2247 40.6369 35.3916 40.8063C35.5586 40.9757 35.6521 41.204 35.6521 41.4418C35.6521 41.6797 35.5586 41.9079 35.3916 42.0773C35.2247 42.2468 34.9979 42.3437 34.7601 42.3472H22.0937C21.8559 42.3437 21.629 42.2468 21.4621 42.0773C21.2952 41.9079 21.2017 41.6797 21.2017 41.4418C21.2017 41.204 21.2952 40.9757 21.4621 40.8063C21.629 40.6369 21.8559 40.54 22.0937 40.5364ZM37.5668 9.46357H22.0937C21.8559 9.46003 21.629 9.36309 21.4621 9.19367C21.2952 9.02426 21.2017 8.79598 21.2017 8.55816C21.2017 8.32033 21.2952 8.09206 21.4622 7.92265C21.6291 7.75325 21.856 7.65631 22.0938 7.65279H37.5668C37.8046 7.65632 38.0314 7.75326 38.1983 7.92267C38.3653 8.09208 38.4588 8.32035 38.4588 8.55818C38.4588 8.796 38.3653 9.02428 38.1983 9.19369C38.0314 9.3631 37.8046 9.46004 37.5668 9.46357Z" fill="#1D1D22"/>
<path id="Vector_2" d="M17.0328 6.98279H12.3248C11.8248 6.98279 11.4194 7.38814 11.4194 7.88818V12.5962C11.4194 13.0962 11.8248 13.5016 12.3248 13.5016H17.0328C17.5329 13.5016 17.9382 13.0962 17.9382 12.5962V7.88818C17.9382 7.38814 17.5329 6.98279 17.0328 6.98279Z" fill="#1D1D22"/>
<path id="Vector_3" d="M17.0328 21.7406H12.3248C11.8248 21.7406 11.4194 22.146 11.4194 22.646V27.354C11.4194 27.854 11.8248 28.2594 12.3248 28.2594H17.0328C17.5329 28.2594 17.9382 27.854 17.9382 27.354V22.646C17.9382 22.146 17.5329 21.7406 17.0328 21.7406Z" fill="#1D1D22"/>
<path id="Vector_4" d="M17.0328 36.4984H12.3248C11.8248 36.4984 11.4194 36.9038 11.4194 37.4038V42.1118C11.4194 42.6118 11.8248 43.0172 12.3248 43.0172H17.0328C17.5329 43.0172 17.9382 42.6118 17.9382 42.1118V37.4038C17.9382 36.9038 17.5329 36.4984 17.0328 36.4984Z" fill="#1D1D22"/>
</g>
</g>
<defs>
<clipPath id="clip0_219_335">
<rect width="50" height="50" fill="white"/>
</clipPath>
</defs>
</svg>
